<svg width="279" height="44" viewBox="0 0 279 44" fill="none" xmlns="http://www.w3.org/2000/svg">
<g filter="url(#filter0_d)">
<path d="M6.416 1.64C6.448 1.384 6.544 1.208 6.704 1.112C6.896 0.983998 7.072 0.919998 7.232 0.919998C9.408 0.919998 11.44 0.855998 13.328 0.727998C15.248 0.567998 16.752 0.487998 17.84 0.487998C20.56 0.487998 22.832 0.759998 24.656 1.304C26.512 1.848 28 2.696 29.12 3.848C30.272 5 31.088 6.488 31.568 8.312C32.048 10.136 32.288 12.328 32.288 14.888C32.288 17.48 32.016 20.024 31.472 22.52C30.96 24.984 30.048 27.176 28.736 29.096C27.424 31.016 25.648 32.568 23.408 33.752C21.2 34.904 18.4 35.48 15.008 35.48C13.44 35.48 12 35.448 10.688 35.384C9.408 35.32 8.304 35.128 7.376 34.808C6.448 34.488 5.728 34.008 5.216 33.368C4.704 32.728 4.448 31.848 4.448 30.728C4.448 30.312 4.464 29.688 4.496 28.856C4.56 28.024 4.624 27.032 4.688 25.88C4.784 24.728 4.88 23.464 4.976 22.088C5.104 20.68 5.232 19.208 5.36 17.672C5.616 14.504 5.808 11.976 5.936 10.088C6.096 8.2 6.192 6.728 6.224 5.672C6.288 4.584 6.32 3.768 6.32 3.224C6.352 2.68 6.384 2.152 6.416 1.64ZM15.344 27.896C17.136 27.896 18.56 27.512 19.616 26.744C20.704 25.976 21.536 25 22.112 23.816C22.688 22.632 23.072 21.336 23.264 19.928C23.456 18.52 23.552 17.192 23.552 15.944C23.552 14.6 23.456 13.432 23.264 12.44C23.104 11.416 22.8 10.568 22.352 9.896C21.936 9.224 21.344 8.728 20.576 8.408C19.808 8.056 18.848 7.88 17.696 7.88C17.344 7.88 16.896 7.896 16.352 7.928C15.808 7.96 15.152 8.008 14.384 8.072C14.32 9.256 14.24 10.664 14.144 12.296C14.048 13.896 13.936 15.592 13.808 17.384C13.712 19.144 13.6 20.936 13.472 22.76C13.344 24.552 13.216 26.216 13.088 27.752C13.568 27.816 14 27.864 14.384 27.896C14.768 27.896 15.088 27.896 15.344 27.896ZM47.0248 35.48C45.6168 35.48 44.2088 35.304 42.8008 34.952C41.4248 34.6 40.1768 33.992 39.0568 33.128C37.9688 32.264 37.0728 31.112 36.3688 29.672C35.6648 28.232 35.3128 26.424 35.3128 24.248C35.3128 23.448 35.3768 22.488 35.5048 21.368C35.6328 20.248 35.8728 19.096 36.2248 17.912C36.6088 16.728 37.1208 15.56 37.7608 14.408C38.4328 13.224 39.2968 12.168 40.3528 11.24C41.4088 10.312 42.6888 9.56 44.1928 8.984C45.6968 8.408 47.4888 8.12 49.5688 8.12C51.2328 8.12 52.6408 8.312 53.7928 8.696C54.9448 9.08 55.8728 9.608 56.5768 10.28C57.2808 10.92 57.7928 11.672 58.1128 12.536C58.4328 13.4 58.5928 14.328 58.5928 15.32C58.5928 16.792 58.2888 18.04 57.6808 19.064C57.1048 20.088 56.3368 20.952 55.3768 21.656C54.4488 22.328 53.4088 22.856 52.2568 23.24C51.1048 23.624 49.9688 23.928 48.8488 24.152C47.7288 24.344 46.6888 24.472 45.7288 24.536C44.8008 24.568 44.0808 24.584 43.5688 24.584C43.5688 25.192 43.6488 25.8 43.8088 26.408C44.0008 26.984 44.2728 27.496 44.6248 27.944C44.9768 28.392 45.4408 28.76 46.0168 29.048C46.5928 29.336 47.2968 29.48 48.1288 29.48C48.9608 29.48 49.6008 29.352 50.0488 29.096C50.5288 28.808 50.9128 28.504 51.2008 28.184C51.4888 27.832 51.7288 27.528 51.9208 27.272C52.1448 26.984 52.4328 26.84 52.7848 26.84C52.9448 26.84 53.2168 26.888 53.6008 26.984C54.0168 27.048 54.4328 27.208 54.8488 27.464C55.2648 27.72 55.6328 28.072 55.9528 28.52C56.2728 28.968 56.4328 29.544 56.4328 30.248C56.4328 31.176 56.1448 31.976 55.5688 32.648C54.9928 33.32 54.2408 33.864 53.3128 34.28C52.4168 34.696 51.4088 35 50.2888 35.192C49.1688 35.384 48.0808 35.48 47.0248 35.48ZM47.9368 14.504C47.2328 14.504 46.6248 14.712 46.1128 15.128C45.6328 15.512 45.2168 16.008 44.8648 16.616C44.5448 17.224 44.2888 17.896 44.0968 18.632C43.9368 19.368 43.8088 20.072 43.7128 20.744C45.6968 20.712 47.2968 20.376 48.5128 19.736C49.7608 19.096 50.3848 18.184 50.3848 17C50.3848 16.36 50.1768 15.784 49.7608 15.272C49.3768 14.76 48.7688 14.504 47.9368 14.504ZM72.4756 28.904C72.8596 27.56 73.2116 26.232 73.5316 24.92C73.8836 23.608 74.2196 22.216 74.5396 20.744C74.8916 19.24 75.2596 17.608 75.6436 15.848C76.0596 14.056 76.5396 12.024 77.0836 9.752C77.1796 9.304 77.3236 9.016 77.5156 8.888C77.7076 8.728 78.1236 8.648 78.7636 8.648C79.2436 8.648 79.8836 8.664 80.6836 8.696C81.4836 8.728 82.2676 8.84 83.0356 9.032C83.8036 9.224 84.4596 9.512 85.0036 9.896C85.5796 10.28 85.8676 10.808 85.8676 11.48C85.8676 12.024 85.6756 12.904 85.2916 14.12C84.9076 15.336 84.4116 16.728 83.8036 18.296C83.1956 19.832 82.5076 21.448 81.7396 23.144C81.0036 24.84 80.2836 26.44 79.5796 27.944C78.8756 29.448 78.2196 30.776 77.6116 31.928C77.0036 33.048 76.5556 33.832 76.2676 34.28C76.0116 34.632 75.7876 34.84 75.5956 34.904C75.4036 34.968 75.0836 35 74.6356 35H70.3636C69.6916 35 69.1316 34.888 68.6836 34.664C68.2676 34.408 67.9156 34.088 67.6276 33.704C67.3396 33.32 67.0996 32.888 66.9076 32.408C66.7156 31.896 66.5396 31.368 66.3796 30.824C65.4516 27.624 64.6356 24.888 63.9316 22.616C63.2596 20.312 62.6836 18.392 62.2036 16.856C61.7236 15.32 61.3396 14.104 61.0516 13.208C60.7636 12.28 60.5396 11.576 60.3796 11.096C60.2196 10.584 60.1076 10.248 60.0436 10.088C59.9796 9.896 59.9476 9.768 59.9476 9.704C59.9796 9.48 60.1396 9.24 60.4276 8.984C60.7156 8.728 61.0836 8.6 61.5316 8.6C63.0036 8.6 64.2516 8.664 65.2756 8.792C66.3316 8.888 67.1956 9.08 67.8676 9.368C68.5716 9.656 69.0996 10.056 69.4516 10.568C69.8356 11.08 70.1076 11.752 70.2676 12.584C70.2996 12.808 70.3636 13.256 70.4596 13.928C70.5556 14.6 70.6516 15.416 70.7476 16.376C70.8756 17.304 71.0196 18.344 71.1796 19.496C71.3396 20.616 71.4836 21.752 71.6116 22.904C71.7716 24.024 71.9156 25.112 72.0436 26.168C72.2036 27.224 72.3476 28.136 72.4756 28.904ZM108.949 8.12C111.669 8.12 113.669 8.664 114.949 9.752C116.229 10.808 116.869 12.168 116.869 13.832C116.869 15.24 116.421 16.312 115.525 17.048C114.661 17.784 113.397 18.152 111.733 18.152C111.285 18.152 110.981 18.104 110.821 18.008C110.661 17.912 110.581 17.736 110.581 17.48C110.581 17.192 110.549 16.872 110.485 16.52C110.453 16.136 110.341 15.784 110.149 15.464C109.989 15.112 109.717 14.824 109.333 14.6C108.981 14.376 108.469 14.264 107.797 14.264C106.901 14.264 106.181 14.488 105.637 14.936C105.093 15.352 104.821 15.88 104.821 16.52C104.821 17.192 105.093 17.736 105.637 18.152C106.213 18.536 106.917 18.904 107.749 19.256C108.613 19.608 109.541 19.976 110.533 20.36C111.525 20.712 112.437 21.192 113.269 21.8C114.133 22.408 114.837 23.176 115.381 24.104C115.957 25 116.245 26.168 116.245 27.608C116.245 29.912 115.429 31.8 113.797 33.272C112.165 34.744 109.717 35.48 106.453 35.48C105.557 35.48 104.517 35.4 103.333 35.24C102.181 35.112 101.077 34.904 100.021 34.616C98.9649 34.296 98.0689 33.88 97.3329 33.368C96.6289 32.856 96.2769 32.216 96.2769 31.448C96.2769 31.16 96.3249 30.808 96.4209 30.392C96.5489 29.976 96.7249 29.576 96.9489 29.192C97.2049 28.808 97.4929 28.488 97.8129 28.232C98.1649 27.944 98.5809 27.8 99.0609 27.8C99.4449 27.8 99.7969 27.896 100.117 28.088C100.437 28.28 100.805 28.488 101.221 28.712C101.669 28.904 102.213 29.096 102.853 29.288C103.493 29.48 104.341 29.576 105.397 29.576C106.197 29.576 106.901 29.48 107.509 29.288C108.149 29.096 108.469 28.664 108.469 27.992C108.469 27.384 108.213 26.904 107.701 26.552C107.189 26.168 106.533 25.816 105.733 25.496C104.965 25.176 104.117 24.84 103.189 24.488C102.293 24.104 101.445 23.608 100.645 23C99.8769 22.392 99.2369 21.624 98.7249 20.696C98.2129 19.736 97.9569 18.504 97.9569 17C97.9569 15.368 98.2769 13.992 98.9169 12.872C99.5889 11.72 100.437 10.792 101.461 10.088C102.517 9.384 103.701 8.888 105.013 8.6C106.325 8.28 107.637 8.12 108.949 8.12ZM131.4 35.48C129.992 35.48 128.584 35.304 127.176 34.952C125.8 34.6 124.552 33.992 123.432 33.128C122.344 32.264 121.448 31.112 120.744 29.672C120.04 28.232 119.688 26.424 119.688 24.248C119.688 23.448 119.752 22.488 119.88 21.368C120.008 20.248 120.248 19.096 120.6 17.912C120.984 16.728 121.496 15.56 122.136 14.408C122.808 13.224 123.672 12.168 124.728 11.24C125.784 10.312 127.064 9.56 128.568 8.984C130.072 8.408 131.864 8.12 133.944 8.12C135.608 8.12 137.016 8.312 138.168 8.696C139.32 9.08 140.248 9.608 140.952 10.28C141.656 10.92 142.168 11.672 142.488 12.536C142.808 13.4 142.968 14.328 142.968 15.32C142.968 16.792 142.664 18.04 142.056 19.064C141.48 20.088 140.712 20.952 139.752 21.656C138.824 22.328 137.784 22.856 136.632 23.24C135.48 23.624 134.344 23.928 133.224 24.152C132.104 24.344 131.064 24.472 130.104 24.536C129.176 24.568 128.456 24.584 127.944 24.584C127.944 25.192 128.024 25.8 128.184 26.408C128.376 26.984 128.648 27.496 129 27.944C129.352 28.392 129.816 28.76 130.392 29.048C130.968 29.336 131.672 29.48 132.504 29.48C133.336 29.48 133.976 29.352 134.424 29.096C134.904 28.808 135.288 28.504 135.576 28.184C135.864 27.832 136.104 27.528 136.296 27.272C136.52 26.984 136.808 26.84 137.16 26.84C137.32 26.84 137.592 26.888 137.976 26.984C138.392 27.048 138.808 27.208 139.224 27.464C139.64 27.72 140.008 28.072 140.328 28.52C140.648 28.968 140.808 29.544 140.808 30.248C140.808 31.176 140.52 31.976 139.944 32.648C139.368 33.32 138.616 33.864 137.688 34.28C136.792 34.696 135.784 35 134.664 35.192C133.544 35.384 132.456 35.48 131.4 35.48ZM132.312 14.504C131.608 14.504 131 14.712 130.488 15.128C130.008 15.512 129.592 16.008 129.24 16.616C128.92 17.224 128.664 17.896 128.472 18.632C128.312 19.368 128.184 20.072 128.088 20.744C130.072 20.712 131.672 20.376 132.888 19.736C134.136 19.096 134.76 18.184 134.76 17C134.76 16.36 134.552 15.784 134.136 15.272C133.752 14.76 133.144 14.504 132.312 14.504ZM161.363 20.072C161.171 20.072 160.947 20.072 160.691 20.072C160.467 20.04 160.243 20.008 160.019 19.976C159.795 19.912 159.603 19.848 159.443 19.784C159.283 19.688 159.203 19.576 159.203 19.448C159.203 19.032 159.219 18.648 159.251 18.296C159.283 17.944 159.299 17.576 159.299 17.192C159.299 16.488 159.203 15.912 159.011 15.464C158.819 15.016 158.435 14.792 157.859 14.792C156.963 14.792 156.211 15.384 155.603 16.568C155.027 17.72 154.659 19.464 154.499 21.8C154.435 22.824 154.339 23.992 154.211 25.304C154.115 26.584 154.019 27.832 153.923 29.048C153.827 30.232 153.747 31.288 153.683 32.216C153.619 33.144 153.587 33.752 153.587 34.04C153.587 34.36 153.475 34.6 153.251 34.76C153.027 34.92 152.787 35 152.531 35H150.803C149.811 35 148.995 34.904 148.355 34.712C147.747 34.488 147.251 34.184 146.867 33.8C146.515 33.416 146.259 32.952 146.099 32.408C145.971 31.832 145.907 31.176 145.907 30.44C145.907 29.96 145.923 29.288 145.955 28.424C146.019 27.528 146.115 26.312 146.243 24.776C146.371 23.208 146.515 21.24 146.675 18.872C146.867 16.472 147.091 13.512 147.347 9.992C147.411 9.064 147.747 8.6 148.355 8.6H150.227C151.123 8.6 151.875 8.696 152.483 8.888C153.091 9.08 153.587 9.352 153.971 9.704C154.355 10.024 154.627 10.408 154.787 10.856C154.979 11.304 155.107 11.768 155.171 12.248C155.555 11.512 156.003 10.888 156.515 10.376C157.059 9.832 157.619 9.4 158.195 9.08C158.771 8.728 159.363 8.488 159.971 8.36C160.579 8.2 161.139 8.12 161.651 8.12C162.259 8.12 162.867 8.232 163.475 8.456C164.115 8.68 164.691 9.016 165.203 9.464C165.715 9.912 166.115 10.488 166.403 11.192C166.723 11.896 166.883 12.728 166.883 13.688C166.883 14.552 166.755 15.368 166.499 16.136C166.243 16.904 165.875 17.592 165.395 18.2C164.915 18.776 164.323 19.24 163.619 19.592C162.947 19.912 162.195 20.072 161.363 20.072ZM188.138 35.48C186.25 35.48 184.698 35.352 183.482 35.096C182.266 34.872 181.29 34.536 180.554 34.088C179.85 33.608 179.354 33.016 179.066 32.312C178.81 31.608 178.682 30.776 178.682 29.816C178.682 29.528 178.698 29.128 178.73 28.616C178.762 28.072 178.81 27.32 178.874 26.36C178.938 25.4 179.018 24.168 179.114 22.664C179.242 21.128 179.402 19.208 179.594 16.904C179.818 14.056 179.994 11.8 180.122 10.136C180.25 8.472 180.346 7.192 180.41 6.296C180.474 5.368 180.506 4.728 180.506 4.376C180.538 3.992 180.554 3.672 180.554 3.416C180.554 2.904 180.554 2.488 180.554 2.168C180.586 1.848 180.618 1.608 180.65 1.448C180.714 1.256 180.794 1.128 180.89 1.064C181.018 0.967999 181.194 0.919998 181.418 0.919998C183.306 0.791998 184.906 0.695998 186.218 0.631999C187.562 0.567998 188.73 0.535997 189.722 0.535997C192.154 0.535997 194.234 0.743998 195.962 1.16C197.722 1.544 199.146 2.104 200.234 2.84C201.322 3.576 202.122 4.488 202.634 5.576C203.146 6.664 203.402 7.896 203.402 9.272C203.402 10.04 203.322 10.84 203.162 11.672C203.002 12.472 202.73 13.24 202.346 13.976C201.962 14.712 201.434 15.368 200.762 15.944C200.122 16.488 199.306 16.888 198.314 17.144C200.17 17.72 201.482 18.68 202.25 20.024C203.018 21.336 203.402 22.904 203.402 24.728C203.402 26.2 203.162 27.592 202.682 28.904C202.202 30.184 201.37 31.32 200.186 32.312C199.002 33.272 197.434 34.04 195.482 34.616C193.53 35.192 191.082 35.48 188.138 35.48ZM190.874 20.6C190.522 20.6 190.09 20.632 189.578 20.696C189.066 20.728 188.538 20.792 187.994 20.888L187.466 28.712C188.618 29.064 189.658 29.24 190.586 29.24C191.578 29.24 192.378 29.096 192.986 28.808C193.594 28.52 194.058 28.168 194.378 27.752C194.73 27.304 194.954 26.824 195.05 26.312C195.178 25.768 195.242 25.272 195.242 24.824C195.242 23.64 194.906 22.648 194.234 21.848C193.594 21.016 192.474 20.6 190.874 20.6ZM188.858 7.4C188.794 8.232 188.73 9.208 188.666 10.328C188.634 11.448 188.57 12.664 188.474 13.976C189.498 14.232 190.41 14.36 191.21 14.36C192.17 14.36 192.938 14.248 193.514 14.024C194.09 13.8 194.538 13.512 194.858 13.16C195.21 12.808 195.434 12.424 195.53 12.008C195.658 11.592 195.722 11.192 195.722 10.808C195.722 9.816 195.386 8.968 194.714 8.264C194.074 7.528 192.954 7.16 191.354 7.16C191.002 7.16 190.602 7.192 190.154 7.256C189.738 7.288 189.306 7.336 188.858 7.4ZM218.017 35.48C215.809 35.48 213.969 35.176 212.497 34.568C211.057 33.928 209.905 33.064 209.041 31.976C208.177 30.888 207.569 29.624 207.217 28.184C206.865 26.712 206.689 25.144 206.689 23.48C206.689 21.56 206.913 19.688 207.361 17.864C207.841 16.008 208.641 14.36 209.761 12.92C210.881 11.48 212.353 10.328 214.177 9.464C216.033 8.568 218.337 8.12 221.089 8.12C225.121 8.12 228.001 9.112 229.729 11.096C231.489 13.048 232.369 15.8 232.369 19.352C232.369 20.344 232.289 21.448 232.129 22.664C232.001 23.848 231.729 25.032 231.313 26.216C230.929 27.4 230.385 28.552 229.681 29.672C229.009 30.792 228.145 31.784 227.089 32.648C226.033 33.512 224.753 34.2 223.249 34.712C221.777 35.224 220.033 35.48 218.017 35.48ZM220.273 14.504C219.057 14.504 218.081 14.824 217.345 15.464C216.641 16.072 216.097 16.824 215.713 17.72C215.361 18.584 215.121 19.512 214.993 20.504C214.897 21.464 214.849 22.28 214.849 22.952C214.849 25.064 215.185 26.616 215.857 27.608C216.529 28.6 217.489 29.096 218.737 29.096C219.857 29.096 220.769 28.744 221.473 28.04C222.209 27.336 222.769 26.488 223.153 25.496C223.569 24.504 223.841 23.464 223.969 22.376C224.129 21.288 224.209 20.376 224.209 19.64C224.209 18.04 223.905 16.792 223.297 15.896C222.721 14.968 221.713 14.504 220.273 14.504ZM244.256 26.36C244.16 27.832 244.048 29.24 243.92 30.584C243.792 31.896 243.696 33.048 243.632 34.04C243.6 34.424 243.52 34.68 243.392 34.808C243.264 34.936 242.992 35 242.576 35H240.848C239.856 35 239.04 34.904 238.4 34.712C237.792 34.488 237.296 34.184 236.912 33.8C236.56 33.416 236.304 32.952 236.144 32.408C236.016 31.832 235.952 31.176 235.952 30.44C235.952 29.96 235.968 29.288 236 28.424C236.064 27.528 236.16 26.312 236.288 24.776C236.416 23.208 236.56 21.24 236.72 18.872C236.912 16.472 237.136 13.512 237.392 9.992C237.424 9.288 237.504 8.872 237.632 8.744C237.728 8.648 237.984 8.6 238.4 8.6H240.272C241.232 8.6 242.016 8.712 242.624 8.936C243.232 9.16 243.728 9.448 244.112 9.8C244.496 10.152 244.768 10.568 244.928 11.048C245.088 11.528 245.184 12.024 245.216 12.536C246.144 10.808 247.2 9.64 248.384 9.032C249.568 8.424 250.96 8.12 252.56 8.12C253.424 8.12 254.256 8.2 255.056 8.36C255.856 8.52 256.576 8.792 257.216 9.176C257.856 9.56 258.4 10.072 258.848 10.712C259.296 11.32 259.616 12.104 259.808 13.064C260.8 11.208 261.888 9.928 263.072 9.224C264.256 8.488 265.744 8.12 267.536 8.12C268.528 8.12 269.472 8.232 270.368 8.456C271.296 8.648 272.096 9 272.768 9.512C273.44 10.024 273.968 10.728 274.352 11.624C274.768 12.488 274.976 13.576 274.976 14.888C274.976 15.88 274.928 17.096 274.832 18.536C274.736 19.976 274.624 21.544 274.496 23.24C274.368 24.904 274.224 26.632 274.064 28.424C273.904 30.184 273.776 31.88 273.68 33.512C273.648 33.864 273.616 34.136 273.584 34.328C273.552 34.52 273.488 34.664 273.392 34.76C273.328 34.856 273.216 34.92 273.056 34.952C272.896 34.984 272.672 35 272.384 35H270.848C269.824 35 268.992 34.904 268.352 34.712C267.712 34.52 267.216 34.248 266.864 33.896C266.512 33.544 266.256 33.112 266.096 32.6C265.968 32.056 265.904 31.448 265.904 30.776C265.904 30.36 265.92 29.768 265.952 29C266.016 28.232 266.08 27.4 266.144 26.504C266.24 25.608 266.32 24.68 266.384 23.72C266.48 22.76 266.56 21.88 266.624 21.08C266.72 20.248 266.784 19.528 266.816 18.92C266.88 18.312 266.912 17.912 266.912 17.72C266.912 16.888 266.736 16.152 266.384 15.512C266.064 14.872 265.424 14.552 264.464 14.552C263.632 14.552 262.912 14.824 262.304 15.368C261.696 15.912 261.184 16.664 260.768 17.624C260.352 18.584 260.016 19.72 259.76 21.032C259.504 22.344 259.328 23.768 259.232 25.304C259.168 26.296 259.088 27.432 258.992 28.712C258.896 29.992 258.784 31.592 258.656 33.512C258.624 33.864 258.592 34.136 258.56 34.328C258.528 34.52 258.464 34.664 258.368 34.76C258.304 34.856 258.192 34.92 258.032 34.952C257.872 34.984 257.648 35 257.36 35H255.824C254.8 35 253.968 34.904 253.328 34.712C252.688 34.52 252.192 34.248 251.84 33.896C251.488 33.544 251.232 33.112 251.072 32.6C250.944 32.056 250.88 31.448 250.88 30.776C250.88 30.136 250.928 29.208 251.024 27.992C251.152 26.744 251.264 25.464 251.36 24.152C251.488 22.808 251.6 21.544 251.696 20.36C251.824 19.144 251.888 18.264 251.888 17.72C251.888 16.888 251.712 16.152 251.36 15.512C251.04 14.872 250.4 14.552 249.44 14.552C248.576 14.552 247.84 14.872 247.232 15.512C246.624 16.152 246.112 17.016 245.696 18.104C245.312 19.16 244.992 20.408 244.736 21.848C244.512 23.288 244.352 24.792 244.256 26.36Z" fill="#82AE02"/>
</g>
<defs>
<filter id="filter0_d" x="0.447998" y="0.488007" width="278.528" height="42.992" filterUnits="userSpaceOnUse" color-interpolation-filters="sRGB">
<feFlood flood-opacity="0" result="BackgroundImageFix"/>
<feColorMatrix in="SourceAlpha" type="matrix" values="0 0 0 0 0 0 0 0 0 0 0 0 0 0 0 0 0 0 127 0" result="hardAlpha"/>
<feOffset dy="4"/>
<feGaussianBlur stdDeviation="2"/>
<feComposite in2="hardAlpha" operator="out"/>
<feColorMatrix type="matrix" values="0 0 0 0 0 0 0 0 0 0 0 0 0 0 0 0 0 0 0.25 0"/>
<feBlend mode="normal" in2="BackgroundImageFix" result="effect1_dropShadow"/>
<feBlend mode="normal" in="SourceGraphic" in2="effect1_dropShadow" result="shape"/>
</filter>
</defs>
</svg>
